HIERARCHY
ROOT root
{
	OFFSET	0	13.1	24.9
	CHANNELS 6  Xposition Yposition Zposition Xrotation Yrotation Zrotation
	JOINT spine_1
	{
		OFFSET	0	9.99999	0
		CHANNELS 3  Xrotation Yrotation Zrotation
		JOINT spine_2
		{
			OFFSET	0	112	-10
			CHANNELS 3  Xrotation Yrotation Zrotation
			JOINT spine_3
			{
				OFFSET	0	206.5	19.3
				CHANNELS 3  Xrotation Yrotation Zrotation
				JOINT spine_4
				{
					OFFSET	0	110.4	14.6
					CHANNELS 3  Xrotation Yrotation Zrotation
					JOINT neck_1
					{
						OFFSET	0	71.8	-50.3
						CHANNELS 3  Xrotation Yrotation Zrotation
						JOINT neck_2
						{
							OFFSET	0	86.2	-25.8
							CHANNELS 3  Xrotation Yrotation Zrotation
							JOINT head_ee
							{
								OFFSET	0	179.8	-8.7
								CHANNELS 3  Xrotation Yrotation Zrotation
								End Site
								{
									OFFSET	1	0	0
								}
							}
						}
					}
					JOINT left_clavicle
					{
						OFFSET	-43.2	22.4	-70.8
						CHANNELS 3  Xrotation Yrotation Zrotation
						JOINT left_shoulder
						{
							OFFSET	-93.9	-5.79999	48.7
							CHANNELS 3  Xrotation Yrotation Zrotation
							JOINT left_elbow
							{
								OFFSET	-291.4	-30.8	15.2
								CHANNELS 3  Xrotation Yrotation Zrotation
								JOINT left_lowarm_twist
								{
									OFFSET	-110.7	-3.89999	13.6
									CHANNELS 3  Xrotation Yrotation Zrotation
									JOINT left_hand
									{
										OFFSET	-110.7	-3.89999	13.6
										CHANNELS 3  Xrotation Yrotation Zrotation
										JOINT left_ee
										{
											OFFSET	-80.8	-5.10001	12.1
											CHANNELS 3  Xrotation Yrotation Zrotation
											End Site
											{
												OFFSET	1	0	0
											}
										}
									}
								}
							}
						}
					}
					JOINT right_clavicle
					{
						OFFSET	43.2	22.4	-70.8
						CHANNELS 3  Xrotation Yrotation Zrotation
						JOINT right_shoulder
						{
							OFFSET	93.9	-5.79999	48.7
							CHANNELS 3  Xrotation Yrotation Zrotation
							JOINT right_elbow
							{
								OFFSET	291.4	-30.8	15.2
								CHANNELS 3  Xrotation Yrotation Zrotation
								JOINT right_lowarm_twist
								{
									OFFSET	110.7	-3.89999	13.6
									CHANNELS 3  Xrotation Yrotation Zrotation
									JOINT right_hand
									{
										OFFSET	110.7	-3.89999	13.6
										CHANNELS 3  Xrotation Yrotation Zrotation
										JOINT right_ee
										{
											OFFSET	80.8	-5.10001	12.1
											CHANNELS 3  Xrotation Yrotation Zrotation
											End Site
											{
												OFFSET	1	0	0
											}
										}
									}
								}
							}
						}
					}
				}
			}
		}
	}
	JOINT left_hip
	{
		OFFSET	-82.8	-127.5	0.300001
		CHANNELS 3  Xrotation Yrotation Zrotation
		JOINT left_knee
		{
			OFFSET	-28.2	-396.7	2.2
			CHANNELS 3  Xrotation Yrotation Zrotation
			JOINT left_ankle
			{
				OFFSET	-11.7	-411.3	35.4
				CHANNELS 3  Xrotation Yrotation Zrotation
				JOINT left_toes
				{
					OFFSET	0	-60	-88.6
					CHANNELS 3  Xrotation Yrotation Zrotation
					JOINT left_foot_ee
					{
						OFFSET	-22.5	-16.5	-42.2
						CHANNELS 3  Xrotation Yrotation Zrotation
						End Site
						{
							OFFSET	1	0	0
						}
					}
				}
			}
		}
	}
	JOINT right_hip
	{
		OFFSET	82.8	-127.5	0.300001
		CHANNELS 3  Xrotation Yrotation Zrotation
		JOINT right_knee
		{
			OFFSET	28.2	-396.7	2.2
			CHANNELS 3  Xrotation Yrotation Zrotation
			JOINT right_ankle
			{
				OFFSET	11.7	-411.3	35.4
				CHANNELS 3  Xrotation Yrotation Zrotation
				JOINT right_toes
				{
					OFFSET	0	-60	-88.6
					CHANNELS 3  Xrotation Yrotation Zrotation
					JOINT right_foot_ee
					{
						OFFSET	22.5	-16.5	-42.2
						CHANNELS 3  Xrotation Yrotation Zrotation
						End Site
						{
							OFFSET	1	0	0
						}
					}
				}
			}
		}
	}
}
MOTION
Frames: 9
Frame Time: 0.02
2513.57 736.962 -589.807 -178.065 -73.1976 -165.459 1.78024 -0.265947 -4.36853 1.79086 0.0123023 -4.37659 1.78981 0.799384 -4.30312 1.76399 0.110432 -4.37522 -20.0372 6.40051 7.81986 -19.9576 8.38097 9.91701 -0.0 0.0 -0.0 10.6723 -0.556758 21.0831 -12.1458 -24.7775 48.6595 1.46495 -35.9659 0.475531 -74.6223 -7.13662 5.31976 -3.32052 26.9797 -7.71684 -0.0 0.0 -0.0 -3.19593 -10.5545 4.24218 -7.16763 20.4916 -71.9889 0.419405 11.737 -0.0431086 58.0425 1.60279 6.92444 -1.30485 -16.2896 1.36885 0.0 0.0 0.0 11.6113 31.5857 -18.3774 -0.370214 0.0150673 0.0548152 24.9644 -29.2746 -4.10342 -11.9585 0.0 0.0 -0.0 0.0 -0.0 9.43682 1.10281 -12.8165 -18.3128 -0.311903 -2.781 -22.02 -23.6345 -3.42809 -33.8265 0.0 0.0 0.0 0.0 0.0 
2523.14 738.85 -590.722 -175.986 -74.248 -163.324 1.81775 -0.71956 -4.34487 1.82814 -0.441899 -4.38175 1.86226 0.346662 -4.3903 1.83554 -0.350367 -4.39 -18.2563 7.68012 11.1846 -17.9874 8.76812 13.3465 -0.0 0.0 -0.0 10.6157 -0.168583 20.9426 -11.1378 -23.9172 48.6446 1.65742 -39.3841 0.59322 -75.3039 -7.22369 5.31828 -3.173 26.4783 -7.18299 -0.0 0.0 -0.0 -2.81947 -9.49629 3.78539 -8.02647 19.5343 -71.5202 0.295892 8.339 -0.0215707 59.1613 1.69983 7.03003 -1.43105 -11.5096 4.33659 0.0 0.0 0.0 10.9406 31.3729 -17.0398 1.51527 -0.0653566 -0.223328 22.3815 -29.3829 -3.74453 -13.3813 0.0 0.0 -0.0 0.0 -0.0 9.15355 -1.58089 -13.9797 -13.2338 -0.314879 -2.002 -20.829 -24.3626 -3.25298 -33.8668 0.0 0.0 0.0 0.0 0.0 
2526.95 737.238 -594.647 -173.293 -72.9453 -160.874 1.99508 -0.687522 -4.41906 2.00585 -0.405218 -4.45376 2.0371 0.382114 -4.45579 2.00955 -0.325671 -4.46026 -18.3949 9.32537 10.277 -18.2758 12.4621 13.165 -0.0 0.0 -0.0 10.9632 0.359241 21.6368 -8.26086 -21.0956 48.6166 1.77153 -41.2652 0.667071 -76.0505 -7.31902 5.31546 -1.9212 26.319 -0.313646 -0.0 0.0 -0.0 -2.5129 -8.1346 3.48695 -8.71462 18.4374 -70.6348 0.203438 5.75482 -0.0102253 60.5441 1.82261 7.1579 -1.84212 -10.4551 7.4627 0.0 0.0 0.0 10.3316 30.3448 -16.1149 1.77135 -0.0769858 -0.2609 23.212 -30.0482 -3.89671 -13.3969 0.0 0.0 -0.0 0.0 -0.0 18.24 -4.24938 -16.1498 -8.8751 -0.262418 -1.33542 -11.416 -27.9999 -1.8065 -38.3062 0.0 0.0 0.0 0.0 0.0 
2534.03 739.606 -596.273 -170.842 -72.3816 -158.555 2.13847 -0.642598 -4.48076 2.14956 -0.35647 -4.51249 2.17688 0.429567 -4.50613 2.14867 -0.286734 -4.51744 -17.7302 8.74763 12.2742 -17.4116 10.1149 14.6949 -0.0 0.0 -0.0 10.7849 0.678762 21.2433 -6.34136 -20.0051 50.3997 1.97004 -44.2964 0.801948 -78.6509 -7.65044 5.29588 -1.86188 24.721 -0.745684 -0.0 0.0 -0.0 -2.26879 -7.32804 3.18829 -9.95746 16.452 -70.1915 0.1977 5.59356 -0.00965798 62.4741 1.99908 7.33137 -1.7595 -6.84368 8.63855 0.0 0.0 0.0 10.6389 30.4973 -15.2122 1.65204 -0.0715465 -0.243401 22.6787 -26.679 -3.66532 -14.401 0.0 0.0 -0.0 0.0 -0.0 20.4168 -4.25163 -16.1125 -10.269 -0.284711 -1.54814 -4.07664 -28.9836 -0.642262 -37.9124 0.0 0.0 0.0 0.0 0.0 
2545.41 738.962 -596.565 -169.484 -72.2871 -157.44 2.32632 -0.713495 -4.50898 2.33753 -0.425435 -4.54515 2.36998 0.351723 -4.55143 2.34128 -0.37074 -4.54992 -17.2166 9.13292 12.1221 -16.9185 10.8183 14.6369 -0.0 0.0 -0.0 10.7731 2.71815 21.071 -5.29634 -20.6496 50.7744 2.14915 -46.7869 0.929816 -79.7307 -7.78766 5.28329 -1.32187 21.3278 0.794097 -0.0 0.0 -0.0 -2.19084 -6.80448 3.13522 -12.3623 15.0116 -69.9808 0.246287 6.95607 -0.0149688 62.2554 1.97879 7.31201 -1.65836 -4.80503 8.92356 0.0 0.0 0.0 10.2099 29.7211 -14.8685 0.862623 -0.0364812 -0.127346 24.1574 -27.7664 -3.91836 -14.8845 0.0 0.0 -0.0 0.0 -0.0 21.5979 -5.69041 -15.4424 -7.78001 -0.241278 -1.16871 8.28068 -18.0464 1.20228 -38.4008 0.0 0.0 0.0 0.0 0.0 
2565.65 728.352 -600.578 -169.496 -72.6461 -157.842 2.50758 -0.924649 -4.52045 2.51872 -0.635436 -4.56998 2.56773 0.132361 -4.61196 2.53856 -0.596895 -4.57516 -17.4431 10.4287 12.9601 -17.1398 12.9107 15.9114 -0.0 0.0 -0.0 10.208 4.02131 19.8244 -3.22683 -20.2497 54.0427 2.47413 -50.7804 1.17443 -79.9619 -7.817 5.28025 -0.511036 17.506 3.9994 -0.0 0.0 -0.0 -3.34284 -6.74594 5.23652 -13.4333 14.6034 -71.2129 0.268047 7.56382 -0.0177187 62.9223 2.04089 7.3708 -1.84366 -4.16029 10.4634 0.0 0.0 0.0 7.05505 28.5463 -13.064 1.7807 -0.0774135 -0.262271 28.3133 -25.9839 -4.37869 -15.4801 0.0 0.0 -0.0 0.0 -0.0 23.7829 -4.24538 -14.7325 -8.94645 -0.263685 -1.34629 15.1848 -13.5529 2.12861 -36.9148 0.0 0.0 0.0 0.0 0.0 
2574.28 723.723 -599.606 -168.462 -73.1779 -157.017 2.47394 -1.02977 -4.55288 2.48517 -0.738284 -4.60901 2.54306 0.039107 -4.66748 2.51335 -0.697727 -4.61531 -17.7434 10.8395 12.5897 -17.5047 13.9858 15.7705 -0.0 0.0 -0.0 9.62431 4.36671 18.6381 -1.35437 -19.5469 55.7828 2.74879 -53.697 1.39163 -79.7307 -7.78766 5.28329 0.013691 15.2557 6.32625 -0.0 0.0 -0.0 -3.74699 -6.57234 6.00913 -14.459 13.6936 -72.4946 0.338942 9.53137 -0.0282575 63.3959 2.08541 7.41212 -1.84474 -3.53405 10.7656 0.0 0.0 0.0 5.24469 27.6676 -12.0446 4.59243 -0.216173 -0.671254 29.2137 -24.8484 -4.43594 -16.2742 0.0 0.0 -0.0 0.0 -0.0 25.2525 -3.12415 -14.2669 -9.06796 -0.265811 -1.36482 19.7599 -8.8729 2.70211 -35.6512 0.0 0.0 0.0 0.0 0.0 
2581.93 720.358 -599.926 -168.87 -74.0659 -157.702 2.35384 -1.08383 -4.566 2.36508 -0.79141 -4.62554 2.42792 -0.00125197 -4.69261 2.39797 -0.741539 -4.63378 -18.226 11.0273 11.904 -18.0755 14.8399 15.2939 -0.0 0.0 -0.0 9.13533 4.5539 17.6645 0.108094 -19.7599 58.0309 2.99061 -55.969 1.58936 -79.4347 -7.75007 5.287 0.382899 13.0601 7.79565 -0.0 0.0 -0.0 -4.06383 -6.60158 6.58448 -15.2353 12.984 -72.7758 0.36277 10.1878 -0.0323377 63.8197 2.12553 7.44878 -1.81473 -3.52591 10.5676 0.0 0.0 0.0 3.42345 27.7202 -11.019 6.37098 -0.314269 -0.926325 30.5737 -24.323 -4.57378 -16.8283 0.0 0.0 -0.0 0.0 -0.0 27.4586 -2.39182 -13.2609 -8.7307 -0.259813 -1.31341 23.1632 -4.50652 3.11756 -34.4636 0.0 0.0 0.0 0.0 0.0 
2591.44 719.286 -602.714 -169.643 -73.9793 -158.62 2.3126 -0.990493 -4.7604 2.32494 -0.68593 -4.81361 2.38142 0.138765 -4.86014 2.34902 -0.629636 -4.82127 -18.1834 11.3623 11.3795 -18.1015 15.7599 14.9413 -0.0 0.0 -0.0 9.16752 3.83128 17.7701 0.931136 -19.7154 59.3305 3.19597 -57.7093 1.76129 -78.9594 -7.68967 5.29255 0.631435 11.2813 8.70456 -0.0 0.0 -0.0 -4.35527 -6.68201 7.1033 -15.739 12.696 -72.9713 0.385269 10.8052 -0.0364364 64.2548 2.16701 7.4861 -1.81844 -3.85542 10.4377 0.0 0.0 0.0 1.97558 28.3876 -10.2551 5.59069 -0.270254 -0.814788 32.8317 -23.4185 -4.78915 -16.902 0.0 0.0 -0.0 0.0 -0.0 28.7701 -1.93925 -12.8453 -6.67196 -0.216648 -1.00045 25.4839 -0.576885 3.40534 -33.4514 0.0 0.0 0.0 0.0 0.0 
